<?xml version="1.0" ?><svg id="Layer_1_1_" style="enable-background:new 0 0 64 64;" version="1.1" viewBox="0 0 64 64" xml:space="preserve" xmlns="http://www.w3.org/2000/svg" xmlns:xlink="http://www.w3.org/1999/xlink"><g><g><path d="M44,40v10c-3.314,0-6,2.686-6,6s2.686,6,6,6c1.539,0,2.938-0.584,4-1.537    C49.062,61.416,50.461,62,52,62c3.314,0,6-2.686,6-6s-2.686-6-6-6V40H44z" style="fill:#E6E9ED;"/><path d="M11,40.916V50c-3.314,0-6,2.686-6,6s2.686,6,6,6c1.539,0,2.938-0.584,4-1.537    C16.062,61.416,17.461,62,19,62c3.314,0,6-2.686,6-6s-2.686-6-6-6v-9.082L11,40.916z" style="fill:#E6E9ED;"/><path d="M34,15.603L34,15.603c0,1.586,0.277,3.159,0.819,4.649L42,40h12l7.181-19.748    C61.723,18.762,62,17.189,62,15.603v0C62,8.09,55.91,2,48.397,2h-0.793C40.09,2,34,8.09,34,15.603z" style="fill:#B27946;"/><path d="M19,43.125v-2.207l-8-0.002v2.209C12.253,43.681,13.596,44,15,44S17.747,43.681,19,43.125z" style="fill:#CCD1D9;"/><path d="M28,18c0-8.837-5.82-16-13-16S2,9.163,2,18c0,3.906,1.14,7.481,3.029,10.259    C5.018,28.506,5,28.75,5,29c0,7.18,4.477,13,10,13s10-5.82,10-13c0-0.25-0.018-0.494-0.029-0.741C26.86,25.481,28,21.906,28,18z" style="fill:#B27946;"/><rect height="2" style="fill:#CCD1D9;" width="8" x="44" y="40"/></g><g><path d="M54.7,41l7.42-20.406c0.584-1.604,0.88-3.282,0.88-4.99C63,7.551,56.449,1,48.396,1h-0.793C39.551,1,33,7.551,33,15.604    c0,1.708,0.296,3.387,0.88,4.99L41.3,41H43v8.071c-3.388,0.486-6,3.408-6,6.929c0,3.859,3.141,7,7,7c1.437,0,2.829-0.443,4-1.263    C49.171,62.557,50.563,63,52,63c3.859,0,7-3.141,7-7c0-3.521-2.612-6.442-6-6.929V41H54.7z M35.759,19.91    C35.256,18.526,35,17.077,35,15.604C35,8.654,40.654,3,47.604,3h0.793C55.346,3,61,8.654,61,15.604    c0,1.474-0.256,2.923-0.759,4.307L53.3,39H42.7L35.759,19.91z M52,51c2.757,0,5,2.243,5,5s-2.243,5-5,5    c-1.228,0-2.411-0.455-3.332-1.281L48,59.119l-0.668,0.6C46.411,60.545,45.228,61,44,61c-2.757,0-5-2.243-5-5s2.243-5,5-5h1V41h6    v10H52z"/><rect height="2" width="2" x="51" y="10"/><rect height="2" width="2" x="39" y="17"/><rect height="2" width="2" x="45" y="22"/><rect height="2" width="2" x="47" y="29"/><rect height="2" width="2" x="54" y="24"/><rect height="2" width="2" x="41" y="9"/><rect height="2" width="2" x="46" y="14"/><rect height="2" width="2" x="46" y="5"/><rect height="2" width="2" x="55" y="17"/><rect height="2" width="2" x="41" y="27"/><rect height="2" width="2" x="44" y="35"/><rect height="2" width="2" x="50" y="33"/><rect height="2" width="2" x="19" y="10"/><rect height="2" width="2" x="7" y="17"/><rect height="2" width="2" x="13" y="22"/><rect height="2" width="2" x="15" y="30"/><rect height="2" width="2" x="20" y="24"/><rect height="2" width="2" x="9" y="9"/><rect height="2" width="2" x="14" y="14"/><rect height="2" width="2" x="14" y="5"/><rect height="2" width="2" x="23" y="17"/><rect height="2" width="2" x="9" y="27"/><rect height="2" width="2" x="12" y="36"/><path d="M15,1C7.28,1,1,8.626,1,18c0,3.821,1.068,7.548,3.014,10.537C4.006,28.69,4,28.845,4,29c0,5.427,2.444,10.132,6,12.455    v7.617C6.612,49.558,4,52.479,4,56c0,3.859,3.141,7,7,7c1.437,0,2.829-0.443,4-1.263C16.171,62.557,17.563,63,19,63    c3.859,0,7-3.141,7-7c0-3.521-2.612-6.442-6-6.929v-7.617c3.556-2.322,6-7.027,6-12.455c0-0.155-0.006-0.31-0.014-0.463    C27.932,25.548,29,21.821,29,18C29,8.626,22.72,1,15,1z M19,51c2.757,0,5,2.243,5,5s-2.243,5-5,5    c-1.228,0-2.411-0.455-3.332-1.281L15,59.119l-0.668,0.6C13.411,60.545,12.228,61,11,61c-2.757,0-5-2.243-5-5s2.243-5,5-5h1    v-8.543C12.955,42.803,13.959,43,15,43s2.045-0.197,3-0.543V51H19z M24.144,27.696l-0.188,0.276l0.025,0.525    C23.99,28.665,24,28.831,24,29c0,6.617-4.037,12-9,12s-9-5.383-9-12c0-0.169,0.01-0.335,0.019-0.502l0.025-0.525l-0.188-0.276    C4.015,24.989,3,21.546,3,18C3,9.729,8.383,3,15,3s12,6.729,12,15C27,21.546,25.985,24.989,24.144,27.696z"/></g></g></svg>